<svg width="512" height="512" xml:space="preserve" xmlns="http://www.w3.org/2000/svg"><g style="display:inline"><path style="fill:#000;fill-opacity:0;stroke-width:1.02432" fill="none" d="M0 0h512v512H0z"/><path style="fill:#295cad;fill-opacity:1;stroke-width:.264583" d="m32.366 126.84 14.579-13.14 43.774 20.968-1.628 22.18s-.036 5.765-4.5 5.048c-4.466-.718-37.344-8.814-53.621-28.676-2.605-3.178 1.396-6.38 1.396-6.38zM11.267 74.38l11.943-1.077 16.824 34.78-17.517 14.625s-4.319 3.294-6.35-.096c-2.03-3.39-13.575-20.604-9.708-45.88.309-2.02 4.808-2.352 4.808-2.352z" transform="matrix(2.94963 0 0 2.94963 -9.443 -10.093)"/><path style="fill:#376dba;fill-opacity:1;stroke-width:.264583" d="M40.143 65.394 8.468 68.148s-2.819.34-2.872-3.358c-.053-3.698 7.543-17.602 19.947-27.822 1.16-.956 3.485-.109 3.485-.109l5.76 2.849z" transform="matrix(2.94963 0 0 2.94963 -9.443 -10.093)"/><path style="fill:#4888cb;fill-opacity:1;stroke-width:.264583" d="m62.405 22.213-2.099-2.399s-.218-.548-1.393-.236c-1.175.313-16.625 2.995-26.914 10.616-2.493 1.847-.06 2.963-.06 2.963l18.347 7.937z" transform="matrix(2.94963 0 0 2.94963 -9.443 -10.093)"/><path style="fill:#548fca;fill-opacity:1;stroke-width:.264583" d="m70.062 25.39-4.64-6.364s-.793-.954 1.082-1.693c1.875-.74 19.24-.814 26.608.398.988.163 1.12 1.494 1.12 1.494l-.01 4.755z" transform="matrix(2.94963 0 0 2.94963 -9.443 -10.093)"/><path style="fill:#3669af;fill-opacity:1;stroke-width:.264583" d="m99.67 21.186-.123-1.928s-.159-.987 1.539-.653c1.698.334 10.59 2.411 24.087 9.16 1.76.88-.063 2.314-.063 2.314l-10.059 7.718z" transform="matrix(2.94963 0 0 2.94963 -9.443 -10.093)"/><path style="fill:#305eaf;fill-opacity:1;stroke-width:.264583" d="M132.184 51.045c.35 1.238 1.089 1.214 1.089 1.214l18.896-1.247s1.296-.049 1.16-1.527c-.136-1.478-12.653-14.358-20.24-18.305-.967-.503-1.724.153-1.724.153l-2.354 1.917s1.532 11.997 3.173 17.795z" transform="matrix(2.94963 0 0 2.94963 -9.443 -10.093)"/><path style="fill:#285bac;fill-opacity:1;stroke-width:.264583" d="m141.605 71.068.081 1.844s-.168 1.093.79 1.546c.957.452 25.078 10.75 25.078 10.75s2.672 1.213 3.348-.908c.676-2.12-5.6-22.015-10.952-28.317-1.045-1.231-2.655-.864-2.655-.864l-5.918.69z" transform="matrix(2.94963 0 0 2.94963 -9.443 -10.093)"/><path style="fill:#214da0;fill-opacity:1;stroke-width:.264583" d="m134.473 100.938 22.246 29.1s2.311 3.076 5.062 1.606c2.745-1.467 12.537-19.718 12.607-34.441.008-1.63-2.269-2.693-2.269-2.693l-11.418-5.403z" transform="matrix(2.94963 0 0 2.94963 -9.443 -10.093)"/><path style="fill:#285bac;fill-opacity:1;stroke-width:.264583" d="m141.533 123.562 13.363 18.935s1.171 2.046-.288 4.004c-1.46 1.959-23.77 18.038-50.582 17.088-3.561-.126-3.907-5.41-3.907-5.41l1.685-48.571z" transform="matrix(2.94963 0 0 2.94963 -9.443 -10.093)"/><path style="display:inline;fill:#a0baef;fill-opacity:1;stroke-width:.264583" d="M98.27 21.542s.055-.866 1.357-.61c1.301.257 13.723 2.572 23.084 8.057.972.57.239 1.72.239 1.72l-8.31 8.01s-.758.541-2.007.014c-1.25-.528-6.84-3.905-13.792-4.886-1.095-.155-.653-10.307-.653-10.307z" transform="matrix(2.94963 0 0 2.94963 -9.783 -10.308)"/><path style="display:inline;fill:#c3d5f7;fill-opacity:1;stroke-width:.264583" d="M77.814 33.767s4.118-.474 8.133-.652c4.016-.178 8.566-9.984 8.566-9.984l-.033-2.032s.271-.762-1.545-.918c-1.817-.156-8.17-1.855-24.204.133-1.015.125-.502 1.421-.502 1.421zM39.05 34.003l21.187 8.98s3.938-3.923 12.14-8.18c5.9-3.064-3.595-7.622-3.595-7.622l-4.506-5.216s-.355-.664-1.902-.246c-1.547.419-8.03 1.33-23.783 10.142-2.133 1.193.459 2.142.459 2.142z" transform="matrix(2.94963 0 0 2.94963 -9.783 -10.308)"/><path style="display:inline;fill:#aec7f4;fill-opacity:1;stroke-width:.264583" d="m37.144 37.53 20.319 9.17s-3.953 8.988-3.988 15.8c-.035 6.814-13.8.914-13.8.914l-18.686 1.5s-2.303-.035-1.623-2.441c.68-2.406 4.997-16.066 14.473-24.163 1.814-1.55 3.305-.78 3.305-.78z" transform="matrix(2.94963 0 0 2.94963 -9.783 -10.308)"/><path style="display:inline;fill:#8aaeec;fill-opacity:1;stroke-width:.264583" d="m24.534 69.567 30.437-2.814s5.629 13.26 12.295 19.493c6.666 6.233-9.753 7.587-9.753 7.587l-18.66 15.431s-2.615 1.786-4.765-.725c-2.15-2.51-12.678-15.109-12.623-36.564.006-2.315 3.07-2.408 3.07-2.408z" transform="matrix(2.94963 0 0 2.94963 -9.783 -10.308)"/><path style="display:inline;fill:#6c91e1;fill-opacity:1;stroke-width:.264583" d="m46.034 112.453 24.565-23.26s16.136 7.857 25.552 8.646c9.416.789.031 10.755.031 10.755l-.924 25.058s-.44 4.33-4.853 3.784c-4.413-.544-24.264-3.534-44.912-20.473-2.44-2.002.54-4.51.54-4.51z" transform="matrix(2.94963 0 0 2.94963 -9.783 -10.308)"/><path style="display:inline;fill:#6387df;fill-opacity:1;stroke-width:.264583" d="m101.325 130.947.547-32.754s11.224-1.937 20.351-5.76c2.751-1.152 4.7 1.522 4.7 1.522l18.47 23.865s1.936 2.49.102 3.986c-1.78 1.45-11.872 12.65-40.225 14.45-3.394.216-3.945-5.309-3.945-5.309z" transform="matrix(2.94963 0 0 2.94963 -9.783 -10.308)"/><path style="display:inline;fill:#607fdb;fill-opacity:1;stroke-width:.264583" d="M135.667 75.131s.657-1.662 2.33-1.067c1.674.595 23.004 9.392 23.004 9.392s1.397.476 1.247 2.259c-.15 1.782.045 15.45-10.331 28.063-1.938 2.356-5.022-.924-5.022-.924l-20.55-23.422s4.718-4.154 9.322-14.301z" transform="matrix(2.94963 0 0 2.94963 -9.783 -10.308)"/><path style="display:inline;fill:#80a0e7;fill-opacity:1;stroke-width:.264583" d="m136.748 70.615 21.357 8.366s3.91 1.727 3.49-2.435c-.42-4.163-3.964-16.38-9.505-22.894-.913-1.075-2.05-.809-2.05-.809l-17.296 1.832s-1.38.082-.778 1.411c.602 1.33 2.036 3.477 3.158 12.736.184 1.514 1.624 1.793 1.624 1.793z" transform="matrix(2.94963 0 0 2.94963 -9.783 -10.308)"/><path style="display:inline;fill:#89a6e8;fill-opacity:1;stroke-width:.264583" d="m126.307 32.422-7.79 7.774s-.701 1.08.02 1.588c.574.404 3.344 1.526 9.826 9.34.73.88 1.906.666 1.906.666l16.13-1.676s2.329-.675 1.087-2.263c-1.243-1.588-9.325-10.921-18.716-15.63-1.63-.816-2.463.201-2.463.201z" transform="matrix(2.94963 0 0 2.94963 -9.783 -10.308)"/><path style="fill:#eaf6fd;fill-opacity:1;stroke-width:.264583" d="m78.562 24.17 6.573 10.057s.195.598.804.535c.61-.064 4.936-1.101 11.16.091 1.711.328 1.77-.973 1.77-.973l1.638-8.823s.426-1.187-1.155-1.452c-1.581-.264-6.731-2.467-20.102-1.021-1.542.167-.688 1.587-.688 1.587zM81.821 35.324l-.006-1.168-6.835-9.985s-.376-.706-2.212-.331c-1.836.375-12.919 3.348-18.221 7.106-1.351.958 1.152 2.254 1.152 2.254l14.687 7.603s.397.278.882-.046 1.675-2.12 9.634-4.937c1.228-.434.919-.496.919-.496z" transform="matrix(2.94963 0 0 2.94963 -9.443 -10.093)"/><path style="fill:#eaf7ff;fill-opacity:1;stroke-width:.264583" d="M39.002 52.921s.988-8.428 11.116-18.133c.998-.957 2.29-.071 2.29-.071l15.02 7.246s.605.238.652.937c.047.7.012 1.278.012 1.278s-3.687 5.702-3.898 9.9c-.018.363-.681.244-.681.244s-15.8-.126-23.438.064c-1.14.029-1.073-1.465-1.073-1.465z" transform="matrix(2.94963 0 0 2.94963 -9.443 -10.093)"/><path style="fill:#ecf9fe;fill-opacity:1;stroke-width:.264583" d="m63.453 57.274-22.87.181s-1.648.1-1.742 1.618c-.094 1.518-.14 14.893 8.804 26.65 1.334 1.752 2.527.517 2.527.517l19.833-14.258s.851-1.232.06-2.063c-.792-.83-3.396-2.825-5.594-11.706-.289-1.166-1.018-.94-1.018-.94z" transform="matrix(2.94963 0 0 2.94963 -9.443 -10.093)"/><path style="fill:#d1e4fa;fill-opacity:1;stroke-width:.264583" d="m87.501 107.78 3.767-23.377s.122-.785-.806-.988c-.94-.206-8.68-3.614-14.973-8.433-1.194-.915-1.932-.132-1.932-.132L53.424 88.668s-1.699 1.472.14 3.186c1.84 1.713 12.683 12.638 31.109 17.763 2.599.723 2.828-1.836 2.828-1.836z" transform="matrix(2.94963 0 0 2.94963 -9.443 -10.093)"/><path style="fill:#cee1f9;fill-opacity:1;stroke-width:.264583" d="M94.905 110.655s18.169 2.737 34.113-4.005c1.622-.686.255-2.725.255-2.725l-13.952-20.63s-.492-.805-1.724-.201c-1.233.603-2.55 1.441-15.373 1.037-1.613-.05-1.741 1.53-1.741 1.53s-2.868 16.624-3.677 22.85c-.215 1.655 2.099 2.144 2.099 2.144z" transform="matrix(2.94963 0 0 2.94963 -9.443 -10.093)"/><path style="fill:#cfe2fa;fill-opacity:1;stroke-width:.264583" d="m118.843 81.902 12.616 19.268s1.476 2.013 3.286.963c1.811-1.05 12.785-8.507 15.43-19.56.282-1.176-1.202-1.698-1.202-1.698l-18.925-9.431s-1.047-.624-1.723.143c-.676.767-2.399 3.942-9.075 8.618-1.189.833-.407 1.697-.407 1.697z" transform="matrix(2.94963 0 0 2.94963 -9.443 -10.093)"/></g></svg>
